<?xml version="1.0" standalone="no"?>
<!DOCTYPE svg PUBLIC "-//W3C//DTD SVG 20010904//EN"
 "http://www.w3.org/TR/2001/REC-SVG-20010904/DTD/svg10.dtd">
<svg version="1.0" xmlns="http://www.w3.org/2000/svg"
 width="600.000000pt" height="600.000000pt" viewBox="0 0 600.000000 600.000000"
 preserveAspectRatio="xMidYMid meet">
<metadata>
Created by potrace 1.14, written by Peter Selinger 2001-2017
</metadata>
<g transform="translate(0.000000,600.000000) scale(0.100000,-0.100000)"
fill="#000000" stroke="none">
<path d="M715 5902 c-16 -2 -37 -10 -46 -18 -9 -8 -19 -11 -23 -7 -4 4 -4 1
-1 -8 3 -8 -3 -26 -15 -39 -19 -22 -24 -35 -21 -53 1 -5 -3 -6 -8 -3 -5 3 -15
-9 -22 -27 -7 -17 -15 -34 -18 -37 -15 -13 -45 -91 -42 -109 1 -7 -2 -11 -6
-8 -8 5 -38 -78 -35 -95 1 -5 -2 -8 -6 -8 -8 0 -10 -7 -14 -50 -1 -11 -6 -20
-11 -20 -4 0 -5 -4 -2 -10 3 -5 1 -10 -6 -10 -8 0 -8 -4 1 -15 9 -10 9 -15 1
-15 -6 0 -11 -13 -11 -30 0 -16 -3 -30 -7 -30 -5 0 -9 -10 -10 -22 -3 -59 -11
-116 -15 -124 -8 -13 -7 -377 1 -389 3 -5 7 -23 8 -40 4 -59 13 -99 24 -106 8
-5 8 -8 0 -10 -7 -3 -6 -13 4 -33 8 -15 15 -41 15 -57 0 -16 3 -29 8 -29 4 0
8 -14 9 -32 1 -17 7 -34 12 -38 6 -3 12 -15 15 -25 2 -11 7 -30 11 -42 4 -12
6 -25 4 -27 -2 -3 5 -12 16 -21 11 -9 15 -14 8 -11 -15 8 43 -106 62 -120 8
-6 12 -14 8 -17 -3 -4 0 -14 8 -23 16 -20 20 -64 7 -81 -5 -7 -7 -17 -3 -23 3
-5 1 -10 -5 -10 -7 0 -10 -7 -7 -15 4 -8 2 -17 -4 -20 -5 -4 -7 -17 -5 -31 3
-13 1 -24 -3 -24 -3 0 -7 -8 -8 -17 -1 -10 -2 -32 -4 -50 -1 -18 -5 -31 -8
-29 -3 2 -7 -24 -8 -57 -1 -34 -3 -81 -6 -104 -2 -24 0 -43 6 -43 5 0 4 -7 -3
-15 -16 -19 -22 -283 -7 -292 6 -4 7 -1 2 7 -5 9 -4 11 4 6 7 -5 8 -13 4 -19
-8 -10 -9 -42 -4 -95 0 -7 5 -11 9 -8 5 3 6 -15 2 -39 -7 -44 -5 -49 14 -46 5
1 4 -5 -4 -13 -9 -12 -9 -16 -1 -16 8 0 10 -8 6 -20 -4 -12 -3 -26 2 -33 5 -7
9 -19 8 -27 -1 -8 4 -31 11 -52 7 -20 10 -39 7 -42 -4 -3 -1 -6 6 -6 7 0 9 -5
6 -10 -4 -6 -1 -17 5 -25 7 -8 9 -15 5 -15 -4 0 -1 -8 6 -17 12 -14 12 -15 0
-9 -8 5 -6 -2 5 -19 10 -15 20 -37 21 -49 2 -11 8 -23 14 -27 8 -4 7 -8 -2
-12 -10 -4 -10 -6 -1 -6 6 -1 12 -7 12 -13 0 -7 14 -40 30 -73 17 -33 30 -64
30 -69 0 -5 10 -17 22 -27 14 -13 16 -19 7 -19 -9 0 -10 -3 -4 -8 19 -13 55
-69 48 -76 -3 -3 -2 -6 4 -6 12 0 24 -36 15 -45 -10 -10 -11 -35 -1 -35 6 0 7
-5 4 -11 -12 -18 -12 -68 -1 -72 8 -3 7 -8 -1 -18 -16 -20 -17 -31 -1 -40 10
-7 10 -9 0 -9 -9 0 -10 -5 -3 -18 6 -11 6 -24 1 -32 -5 -9 -4 -20 3 -29 10
-12 9 -13 -3 -6 -13 8 -13 7 -1 -8 7 -9 10 -17 5 -17 -5 0 -9 -23 -9 -50 0
-28 3 -50 8 -50 4 0 3 -8 -2 -18 -5 -10 -6 -24 -1 -32 4 -7 4 -24 0 -36 -6
-14 -5 -26 1 -29 5 -4 7 -11 3 -16 -11 -18 -11 -68 0 -72 7 -2 5 -11 -4 -22
-17 -21 -17 -24 2 -36 10 -7 10 -9 0 -9 -9 0 -10 -5 -3 -18 6 -11 6 -24 1 -32
-5 -9 -4 -20 3 -29 10 -12 9 -13 -3 -6 -13 8 -13 7 -1 -8 7 -9 10 -17 5 -17
-5 0 -9 -23 -9 -50 0 -28 3 -50 8 -50 4 0 5 -6 0 -12 -11 -19 -10 -62 2 -70 6
-5 5 -8 -4 -8 -11 0 -11 -3 -1 -15 7 -8 8 -15 3 -15 -5 0 -10 -7 -10 -15 0 -8
4 -15 8 -15 5 0 5 -10 0 -23 -6 -14 -5 -30 1 -41 7 -13 7 -17 0 -12 -7 4 -7
-3 0 -22 6 -16 17 -29 25 -30 7 -1 21 -3 31 -3 9 -1 22 -5 27 -9 6 -4 27 -6
48 -5 20 1 37 -2 37 -8 0 -5 7 -7 15 -3 8 3 15 1 15 -4 0 -5 7 -7 15 -4 10 4
15 0 15 -16 0 -11 3 -19 8 -17 4 3 8 -9 9 -26 1 -17 7 -35 13 -41 5 -5 10 -18
10 -27 0 -9 7 -22 15 -29 8 -6 13 -15 12 -18 -3 -10 36 -72 45 -72 4 0 8 -7 8
-16 0 -8 5 -12 10 -9 6 3 10 -1 10 -9 0 -9 4 -15 8 -13 5 1 25 -14 44 -33 32
-32 119 -85 139 -85 4 0 11 -3 15 -7 4 -5 16 -8 26 -8 10 0 18 -5 18 -12 0 -9
3 -9 12 0 8 8 17 8 30 1 25 -14 186 -14 219 -1 15 6 30 8 33 5 3 -4 6 -2 6 4
0 5 6 10 13 10 22 1 41 8 55 21 8 7 18 10 23 7 5 -4 9 -1 9 5 0 6 3 9 8 7 10
-7 32 19 24 28 -4 4 -2 5 3 4 6 -2 23 5 39 16 43 28 52 27 51 -10 0 -18 -3
-31 -6 -29 -7 4 -24 -64 -21 -78 1 -5 -2 -8 -7 -8 -5 0 -8 -11 -6 -25 1 -14 0
-23 -3 -20 -3 3 -11 -7 -18 -22 -8 -21 -8 -32 0 -42 8 -11 8 -13 0 -8 -11 6
-28 -26 -25 -45 1 -5 -6 -8 -15 -8 -11 0 -14 -5 -10 -17 4 -10 4 -14 1 -11 -4
4 -18 3 -31 -2 -16 -6 -24 -6 -24 1 0 6 -5 7 -13 2 -16 -10 -28 -11 -53 -2
-12 4 -26 3 -32 -3 -5 -5 -29 -11 -52 -12 -23 -1 -46 -9 -51 -17 -7 -11 -9
-11 -9 0 0 11 -4 11 -23 -1 -12 -8 -32 -13 -44 -12 -13 1 -23 -3 -23 -7 0 -5
-3 -8 -7 -7 -15 5 -103 -34 -103 -44 0 -6 -3 -8 -7 -5 -3 4 -17 0 -30 -8 -13
-9 -28 -13 -34 -10 -5 4 -8 1 -7 -7 2 -7 -3 -12 -9 -11 -7 2 -13 -1 -13 -6 0
-5 -10 -11 -21 -14 -14 -4 -20 -11 -16 -21 4 -9 1 -13 -7 -10 -14 5 -66 -39
-66 -56 0 -6 -3 -9 -7 -7 -5 3 -14 -1 -21 -9 -7 -8 -10 -14 -6 -14 4 0 -5 -11
-19 -24 -14 -13 -23 -26 -20 -29 3 -3 -4 -18 -14 -34 -27 -38 -57 -119 -50
-136 3 -8 0 -20 -6 -27 -9 -10 -9 -11 0 -6 8 4 13 2 13 -6 0 -10 41 -13 197
-12 109 1 203 2 208 4 6 1 12 1 15 0 15 -6 528 -4 542 2 9 4 19 4 22 0 5 -9
128 -8 144 2 6 3 13 3 15 -1 6 -10 769 -9 784 0 6 4 14 4 17 -1 4 -7 114 -9
141 -2 6 1 15 1 20 0 6 -1 105 -3 220 -4 204 -1 239 4 234 31 -1 4 -1 23 0 41
1 27 5 32 25 32 14 0 35 -4 49 -9 13 -5 30 -5 37 -1 9 5 20 4 27 -2 10 -8 13
-7 13 3 0 12 2 12 9 1 4 -8 11 -13 15 -13 3 1 9 1 14 0 27 -3 196 1 200 6 3 2
10 1 17 -5 7 -6 21 -4 38 5 15 8 27 10 27 5 0 -5 14 -4 32 1 18 5 45 9 60 9
16 0 28 4 28 8 0 4 8 8 18 9 9 1 35 10 57 19 22 10 43 19 48 20 4 1 10 3 15 4
4 1 11 2 15 1 5 -1 6 3 3 8 -3 5 9 14 27 22 32 12 41 19 85 59 12 11 22 17 22
13 0 -4 7 3 16 15 8 12 20 20 25 16 5 -3 8 -1 7 3 -2 5 16 28 40 50 23 23 42
44 42 48 0 3 11 16 25 29 14 13 25 26 25 30 0 14 47 76 53 71 4 -3 5 -2 2 2
-3 3 7 21 21 40 14 18 23 33 20 33 -6 0 18 31 51 65 12 13 20 25 17 27 -10 11
79 78 108 82 3 1 9 4 13 8 4 4 18 2 32 -3 14 -5 29 -7 34 -3 5 3 9 0 9 -6 0
-7 8 -9 20 -5 12 4 27 2 34 -4 7 -6 21 -12 32 -14 10 -2 27 -8 38 -12 10 -4
31 -8 47 -9 16 -1 29 -4 29 -7 0 -3 15 -5 33 -2 51 6 61 8 76 17 10 6 12 5 7
-2 -5 -8 -2 -10 8 -6 9 3 16 10 16 15 0 5 7 9 16 9 9 0 12 5 8 12 -5 9 -2 9 9
-1 15 -12 17 -11 17 3 0 10 4 15 9 12 5 -3 11 1 15 9 3 8 13 15 21 15 9 0 14
4 11 8 -3 5 3 18 13 29 15 16 33 52 36 73 0 3 4 11 8 17 5 7 5 13 0 13 -4 0
-1 5 7 10 11 7 11 10 2 10 -9 0 -10 5 -2 19 6 13 7 22 0 26 -5 3 -7 12 -4 19
3 8 1 17 -5 20 -6 4 -8 13 -4 21 3 9 0 22 -7 30 -7 8 -9 15 -6 15 4 0 1 7 -6
15 -27 30 -38 44 -38 50 0 9 -28 36 -36 34 -3 0 -16 8 -28 18 -12 11 -30 19
-39 17 -9 -1 -17 2 -17 8 0 6 -9 8 -20 5 -11 -3 -18 0 -17 6 1 6 -13 12 -32
14 -19 2 -37 7 -40 12 -3 4 -13 9 -21 9 -35 4 -56 8 -68 16 -7 4 -12 2 -12 -6
0 -10 -2 -10 -9 1 -5 7 -14 10 -20 7 -6 -4 -11 -2 -11 4 0 6 -5 8 -12 4 -16
-10 -58 -12 -58 -3 0 4 -14 6 -30 4 -20 -3 -28 0 -24 6 4 7 -2 6 -16 -1 -12
-6 -31 -10 -41 -7 -10 3 -19 1 -19 -4 0 -6 -8 -5 -20 1 -11 6 -20 7 -20 3 0
-5 -15 -9 -32 -8 -18 0 -42 -6 -54 -12 -11 -7 -24 -10 -27 -6 -4 3 -16 -2 -26
-11 -11 -10 -25 -15 -30 -11 -6 3 -14 -1 -17 -9 -3 -9 -10 -14 -14 -11 -5 3
-13 -3 -19 -12 -6 -10 -11 -14 -11 -10 0 8 -38 -16 -84 -53 -53 -42 -166 -164
-166 -179 0 -5 -7 -11 -15 -15 -8 -3 -15 -10 -15 -16 0 -15 -32 -50 -42 -44
-4 3 -5 -2 -2 -10 3 -8 -4 -23 -15 -33 -12 -9 -21 -23 -21 -31 0 -7 -7 -15
-15 -18 -8 -4 -13 -10 -10 -14 3 -5 -7 -22 -22 -38 -16 -16 -40 -42 -55 -58
-33 -36 -83 -78 -96 -81 -5 -1 -21 -4 -36 -7 -14 -2 -30 -7 -36 -11 -5 -3 -10
-1 -10 5 0 6 -4 8 -10 5 -19 -11 -50 -14 -50 -4 0 6 -6 7 -12 2 -18 -11 -42
-10 -50 2 -5 6 -8 6 -8 -1 0 -12 -55 -5 -79 10 -6 4 -11 3 -11 -3 0 -12 -32
-2 -42 13 -5 7 -8 7 -8 -2 0 -9 -5 -10 -19 -3 -10 6 -33 12 -50 13 -17 1 -31
5 -31 9 0 4 -11 6 -24 6 -13 0 -38 7 -54 16 -22 11 -32 12 -36 3 -3 -7 -5 -7
-5 2 -1 7 -5 10 -11 7 -5 -3 -10 -2 -10 3 0 5 -6 9 -12 10 -55 7 -62 11 -77
43 -20 41 -21 44 -21 70 0 12 -4 17 -11 13 -8 -4 -8 0 0 15 15 28 36 22 87
-27 8 -7 14 -11 14 -7 0 3 10 -1 22 -9 12 -9 30 -16 40 -16 10 0 18 -5 18 -11
0 -5 4 -8 9 -4 5 3 12 1 16 -5 4 -6 11 -8 16 -5 5 4 9 0 9 -7 0 -9 3 -9 10 2
5 8 10 10 10 4 0 -13 8 -14 120 -16 47 -1 99 2 115 7 17 4 36 10 43 12 12 3
17 5 60 18 12 4 22 12 22 17 0 5 4 7 8 4 5 -3 18 3 29 14 12 10 23 17 25 15 2
-2 34 24 70 59 37 35 64 67 61 70 -4 3 -2 6 4 6 6 0 16 13 23 30 7 16 16 28
19 25 4 -2 8 2 9 10 1 8 3 22 4 30 1 8 5 15 9 15 4 0 11 20 15 45 3 25 11 45
16 45 5 0 7 4 4 9 -6 10 18 23 46 26 10 1 24 7 31 14 8 6 17 8 21 4 10 -11 36
-12 36 -2 0 4 7 6 15 3 9 -4 15 -1 15 7 0 10 3 10 11 2 16 -16 37 -5 54 28 10
19 11 30 4 34 -6 4 -6 11 -1 18 5 7 9 31 8 55 -1 23 2 42 7 42 4 0 5 6 0 13
-4 6 -8 20 -9 30 -1 9 -3 20 -4 25 -6 18 -5 58 2 74 5 9 4 19 0 22 -11 6 -9
43 3 53 4 5 5 2 0 -6 -5 -8 -4 -12 1 -8 8 4 11 62 4 62 -1 0 -2 36 -3 80 -2
44 -6 86 -10 93 -5 6 -5 18 0 25 12 19 13 210 1 224 -7 9 -7 13 1 13 7 0 8 8
2 23 -10 27 -5 69 10 78 6 4 7 9 2 12 -5 3 -6 33 -3 66 4 41 2 65 -7 77 -9 13
-10 21 -2 31 6 7 9 20 5 28 -3 8 -1 15 4 15 6 0 10 6 10 13 0 7 9 23 20 35 11
12 20 28 20 37 0 8 4 15 10 15 5 0 9 3 8 8 -1 4 3 17 10 30 7 12 9 22 5 22 -4
0 0 5 10 11 9 6 15 14 12 20 -4 5 -1 9 5 9 6 0 8 5 5 10 -3 5 -1 10 5 10 6 0
9 4 6 9 -3 5 1 14 9 21 7 6 12 17 9 24 -3 8 1 20 9 27 7 8 12 19 10 26 -2 6 1
14 6 18 6 3 11 15 11 25 0 10 6 21 13 23 9 4 9 6 -1 6 -8 1 -9 6 -3 19 16 30
24 56 22 75 -1 9 2 17 8 17 6 0 8 6 5 14 -3 8 -1 17 4 20 5 3 8 17 7 31 -2 14
1 25 5 25 5 0 7 9 5 20 -2 11 0 22 5 25 4 3 7 23 6 45 0 22 2 40 6 40 6 0 8 9
8 55 0 11 1 29 2 40 1 11 2 89 2 173 1 83 4 152 7 152 9 0 -2 53 -14 68 -6 8
-6 12 2 12 7 0 9 5 4 13 -11 18 -12 36 -2 43 5 3 6 11 2 17 -4 7 -9 23 -10 37
-2 14 -5 36 -6 50 -2 14 -7 33 -11 42 -4 9 -5 21 -2 27 3 5 -1 17 -10 25 -10
10 -11 16 -3 16 9 0 8 4 -1 15 -7 8 -9 15 -4 15 5 0 2 5 -6 10 -10 6 -11 10
-3 10 9 0 10 7 2 27 -5 14 -8 32 -5 40 3 7 1 13 -4 13 -5 0 -9 11 -8 24 1 14
5 23 9 20 8 -4 24 45 20 61 -2 5 1 7 5 2 6 -6 73 116 80 146 1 4 3 10 4 15 1
4 2 10 1 15 0 4 4 7 10 7 5 0 8 4 5 8 -3 5 2 22 10 37 8 16 13 37 11 47 -3 9
-2 17 2 16 19 -2 22 4 10 19 -8 9 -9 14 -3 10 8 -4 15 7 20 31 4 20 9 42 10
47 2 6 5 17 6 25 2 8 7 20 11 27 4 6 4 18 1 26 -3 8 0 18 6 22 9 6 9 10 -1 16
-11 7 -11 9 1 9 13 0 13 1 0 10 -9 6 -11 10 -3 10 7 0 10 6 7 14 -3 8 -1 17 5
21 8 4 8 12 1 26 -7 11 -7 19 -1 19 10 0 9 25 -2 36 -4 4 -2 14 5 21 17 21 18
163 2 189 -7 12 -10 25 -7 28 11 11 12 35 2 42 -5 3 -5 13 1 24 7 13 7 21 -1
25 -6 4 -9 23 -7 42 1 20 -3 37 -11 42 -18 11 -18 16 -3 33 7 9 9 18 3 20 -5
1 -11 17 -14 33 -2 17 -9 43 -15 58 -7 16 -10 32 -7 37 3 5 1 10 -5 12 -5 1
-11 15 -12 31 -1 15 -7 27 -13 27 -5 0 -4 4 3 9 11 6 10 10 -3 15 -10 3 -15
12 -11 21 3 8 1 15 -5 15 -6 0 -9 7 -5 15 3 8 1 15 -3 15 -5 0 -19 25 -32 55
-12 30 -27 52 -32 48 -5 -3 -6 3 -2 16 4 12 2 21 -4 21 -6 0 -11 7 -11 15 0 8
-4 15 -10 15 -5 0 -10 9 -10 20 0 11 -3 20 -8 20 -4 0 -13 14 -20 30 -8 17
-18 28 -23 24 -5 -3 -9 2 -9 11 0 9 -6 15 -12 12 -7 -2 -23 0 -35 4 -16 6 -23
5 -23 -4 0 -8 -4 -7 -10 3 -6 9 -10 11 -10 3 0 -7 -6 -10 -14 -7 -8 3 -30 1
-50 -4 -22 -6 -38 -7 -42 -1 -3 5 -13 5 -25 -2 -19 -10 -77 -19 -121 -20 -10
0 -20 -4 -23 -9 -3 -5 -12 -7 -20 -3 -8 3 -15 1 -15 -5 0 -5 -10 -8 -22 -8
-13 1 -27 -1 -33 -5 -9 -6 -58 -21 -80 -24 -5 -1 -28 -10 -50 -20 -22 -9 -45
-18 -51 -19 -7 -1 -18 -7 -25 -12 -17 -14 -52 -28 -61 -26 -5 1 -8 -3 -8 -10
0 -6 -3 -8 -6 -5 -4 4 -19 -2 -33 -12 -28 -19 -64 -34 -69 -29 -2 2 -8 -5 -13
-15 -6 -9 -14 -15 -20 -12 -5 4 -9 1 -9 -4 0 -6 -6 -11 -14 -11 -8 0 -16 -7
-20 -15 -3 -8 -12 -15 -20 -15 -9 0 -29 -13 -45 -29 -17 -16 -39 -32 -51 -36
-11 -3 -18 -11 -15 -16 6 -8 -9 -13 -29 -10 -5 1 -6 -5 -2 -14 3 -9 2 -13 -3
-10 -6 3 -14 -3 -20 -12 -6 -10 -11 -14 -11 -9 0 6 -11 -4 -23 -22 -13 -17
-26 -30 -28 -28 -2 2 -10 -2 -17 -10 -7 -8 -10 -14 -6 -14 3 0 -12 -15 -33
-32 -21 -18 -40 -37 -42 -43 -10 -29 -14 -34 -22 -29 -5 3 -9 0 -9 -6 0 -6 -4
-8 -10 -5 -5 3 -10 2 -10 -3 0 -5 -7 -9 -15 -9 -8 0 -15 4 -15 9 0 4 -18 8
-40 8 -22 0 -40 4 -40 8 0 4 -12 8 -27 9 -52 2 -108 9 -118 14 -5 4 -25 6 -43
5 -17 0 -32 1 -32 4 0 3 -24 5 -53 5 -28 -1 -62 3 -75 7 -13 4 -21 4 -18 -1 3
-4 -8 -8 -24 -7 -17 1 -30 5 -30 10 0 5 -7 3 -15 -4 -8 -7 -15 -8 -15 -2 0 5
-11 12 -25 14 -14 3 -25 2 -25 -1 0 -7 -87 -4 -107 4 -7 2 -13 -1 -13 -8 0 -8
-3 -8 -9 2 -7 11 -10 11 -15 0 -5 -11 -7 -11 -12 -1 -3 6 -11 9 -17 5 -6 -3
-27 -7 -46 -8 -20 -1 -36 -3 -36 -4 0 -2 -15 -4 -32 -5 -18 -1 -33 2 -33 8 0
7 -3 8 -8 1 -11 -15 -32 -17 -32 -3 0 10 -2 10 -9 0 -11 -17 -21 -17 -32 0 -7
11 -9 11 -9 -1 0 -7 -6 -11 -15 -7 -8 3 -15 1 -15 -3 0 -5 -17 -7 -37 -6 -20
2 -41 1 -47 -3 -18 -10 -46 -9 -46 2 0 6 -4 4 -10 -4 -5 -8 -12 -11 -16 -7 -4
4 -18 0 -32 -9 -13 -9 -21 -11 -18 -5 9 14 0 14 -27 -1 -12 -7 -32 -11 -44 -9
-12 1 -31 -2 -42 -8 -14 -8 -21 -8 -24 2 -4 9 -6 9 -6 0 -1 -12 -96 79 -141
136 -14 17 -28 31 -33 31 -5 0 -30 22 -56 49 -27 28 -51 47 -55 44 -3 -3 -8 2
-12 11 -3 9 -12 16 -20 16 -8 0 -14 5 -14 12 0 6 -3 9 -6 6 -3 -3 -16 5 -29
18 -13 13 -32 24 -41 24 -10 0 -15 3 -11 6 3 4 -17 18 -46 32 -29 14 -53 29
-55 34 -2 4 -12 8 -22 8 -10 0 -21 7 -24 16 -3 8 -11 12 -17 8 -7 -4 -18 1
-26 11 -7 11 -13 15 -13 11 0 -5 -7 -3 -15 4 -8 6 -19 9 -25 5 -5 -3 -10 -1
-10 6 0 7 -3 10 -6 6 -4 -3 -13 0 -20 8 -8 7 -22 12 -31 11 -10 -2 -23 3 -30
10 -7 7 -22 11 -32 9 -11 -2 -22 3 -25 11 -3 7 -12 11 -20 8 -8 -3 -17 -1 -20
5 -4 6 -13 8 -21 4 -9 -3 -15 1 -15 8 0 11 -3 11 -10 -1 -5 -8 -10 -10 -10 -4
0 6 -6 11 -12 12 -7 2 -24 4 -38 5 -14 2 -32 6 -40 9 -8 4 -22 7 -30 8 -106 9
-136 14 -142 23 -5 8 -10 8 -20 0 -17 -15 -29 -17 -37 -6 -3 4 -19 6 -36 5z
m1665 -4862 c0 -5 9 -10 19 -10 10 0 22 -7 25 -16 3 -8 10 -12 16 -9 5 3 10 2
10 -2 0 -5 9 -14 21 -21 14 -9 19 -9 14 -2 -4 7 7 5 24 -4 17 -9 31 -14 31
-12 0 3 12 1 26 -4 18 -7 30 -7 39 0 6 5 15 7 19 3 4 -4 19 -9 34 -11 34 -4
55 -21 43 -36 -4 -6 -8 -18 -8 -26 -2 -80 -8 -140 -15 -140 -11 0 -6 -23 7
-32 6 -5 6 -8 -1 -8 -6 0 -11 -6 -12 -12 -1 -22 -9 -62 -14 -78 -3 -8 -9 -28
-14 -45 -8 -24 -15 -30 -34 -28 -14 2 -43 4 -65 6 -22 2 -46 6 -53 11 -7 4
-12 2 -12 -6 0 -9 -3 -9 -8 -2 -4 6 -35 11 -69 11 -91 1 -113 8 -113 39 0 14
-3 23 -7 21 -5 -3 -8 8 -8 23 0 15 3 26 8 23 4 -2 7 1 7 6 0 6 -5 11 -10 11
-7 0 -7 6 -1 18 5 10 6 24 1 32 -4 7 -4 24 1 36 6 17 4 26 -5 31 -12 7 -12 14
-1 46 7 20 9 37 5 37 -3 0 -7 7 -7 15 0 8 5 15 10 15 5 0 5 6 -2 13 -8 10 -7
17 1 25 7 7 8 12 2 12 -9 0 -11 38 -4 48 2 1 4 7 5 12 1 6 3 12 4 15 2 10 91
5 91 -5z"/>
</g>
</svg>
